HIERARCHY
ROOT Hips
{
	OFFSET -0.179506 -22.333345 2.821913
	CHANNELS 6 Xposition Yposition Zposition Zrotation Yrotation Xrotation 
	JOINT LeftUpLeg
	{
		OFFSET 6.951974 -9.140623 -0.681533
		CHANNELS 3 Zrotation Yrotation Xrotation
		JOINT LeftLeg
		{
			OFFSET 3.427654 -37.519855 -0.449580
			CHANNELS 3 Zrotation Yrotation Xrotation
			JOINT LeftFoot
			{
				OFFSET -1.359570 -39.796059 -4.369333
				CHANNELS 3 Zrotation Yrotation Xrotation
				JOINT LeftToe
				{
					OFFSET 2.635814 -5.579078 11.928840
					CHANNELS 3 Zrotation Yrotation Xrotation
					End Site
					{
						OFFSET 0.000000 0.000000 0.000000
					}
				}
			}
		}
	}
	JOINT RightUpLeg
	{
		OFFSET -6.767048 -9.052170 -0.431982
		CHANNELS 3 Zrotation Yrotation Xrotation
		JOINT RightLeg
		{
			OFFSET -3.829005 -38.256897 -0.885003
			CHANNELS 3 Zrotation Yrotation Xrotation
			JOINT RightFoot
			{
				OFFSET 1.577377 -39.841461 -4.231180
				CHANNELS 3 Zrotation Yrotation Xrotation
				JOINT RightToe
				{
					OFFSET -2.537174 -4.814398 12.334795
					CHANNELS 3 Zrotation Yrotation Xrotation
					End Site
					{
						OFFSET 0.000000 0.000000 0.000000
					}
				}
			}
		}
	}
	JOINT Spine
	{
		OFFSET -0.253288 10.896323 -2.669631
		CHANNELS 3 Zrotation Yrotation Xrotation
		JOINT Spine1
		{
			OFFSET 0.548704 13.518043 0.109247
			CHANNELS 3 Zrotation Yrotation Xrotation
			JOINT Spine2
			{
				OFFSET 0.145701 5.292222 2.542457
				CHANNELS 3 Zrotation Yrotation Xrotation
				JOINT Neck
				{
					OFFSET -0.277840 21.387037 -4.285703
					CHANNELS 3 Zrotation Yrotation Xrotation
					JOINT Head
					{
						OFFSET 0.515184 6.496960 5.134897
						CHANNELS 3 Zrotation Yrotation Xrotation
						End Site
						{
							OFFSET 0.000000 0.000000 0.000000
						}
					}
				}
				JOINT LeftShoulder
				{
					OFFSET 7.884473 12.174932 -3.408961
					CHANNELS 3 Zrotation Yrotation Xrotation
					JOINT LeftArm
					{
						OFFSET 9.097692 3.046888 -0.886815
						CHANNELS 3 Zrotation Yrotation Xrotation
						JOINT LeftForeArm
						{
							OFFSET 25.961220 -1.277207 -2.745643
							CHANNELS 3 Zrotation Yrotation Xrotation
							JOINT LeftHand
							{
								OFFSET 24.923361 0.898606 -0.117091
								CHANNELS 3 Zrotation Yrotation Xrotation
								End Site
								{
									OFFSET 0.000000 0.000000 0.000000
								}
							}
						}
					}
				}
				JOINT RightShoulder
				{
					OFFSET -8.175920 11.883285 -3.861528
					CHANNELS 3 Zrotation Yrotation Xrotation
					JOINT RightArm
					{
						OFFSET -9.601238 3.255117 -0.914307
						CHANNELS 3 Zrotation Yrotation Xrotation
						JOINT RightForeArm
						{
							OFFSET -25.374195 -1.332924 -2.140099
							CHANNELS 3 Zrotation Yrotation Xrotation
							JOINT RightHand
							{
								OFFSET -25.529810 0.777228 -0.555919
								CHANNELS 3 Zrotation Yrotation Xrotation
								End Site
								{
									OFFSET 0.000000 0.000000 0.000000
								}
							}
						}
					}
				}
			}
		}
	}
}
MOTION
Frames: 9
Frame Time: 0.033333
-10.054109 -24.245157 91.433998 -114.235258 2.921119 88.266938 13.991520 7.132387 -3.322915 -5.418942 0.513595 20.867494 1.401034 14.428100 -25.326351 nan nan nan -10.361948 -10.049180 -14.588664 2.683505 -9.668752 16.956711 3.373477 -9.582697 -6.800302 nan nan nan -5.989015 -0.003748 5.811152 6.924891 -5.068361 4.812969 2.387919 -0.209373 -3.218001 0.568466 2.206662 -7.371795 0.862925 2.949995 5.168499 -13.250265 -9.063407 1.692003 -63.365227 -40.500295 30.366646 161.613175 -70.483608 -126.816305 22.578250 -9.674504 -10.283111 16.695092 -1.208528 -2.392362 36.754908 16.873995 -7.335168 -92.695518 47.301535 -71.620777 -25.646042 1.040045 -8.321752 
-10.021815 -24.231333 91.403976 -114.207135 2.940922 88.096890 14.088149 7.167088 -3.193854 -5.402054 0.477963 20.918216 1.360838 14.495046 -25.342794 nan nan nan -10.422027 -10.132887 -14.431045 2.825903 -9.764830 16.882109 3.399529 -9.468730 -6.730100 nan nan nan -6.124678 0.158849 5.529395 7.064099 -5.166914 5.790742 2.492876 -0.283758 -3.579305 0.828523 1.862415 -7.079637 0.997040 2.509175 5.327630 -13.443812 -9.580626 1.900383 -62.837698 -40.660289 29.947881 160.820154 -70.443017 -126.437948 22.598738 -9.813542 -9.926714 16.793729 -0.720525 -2.407751 36.192797 16.625003 -7.677612 -92.558756 47.114950 -72.119159 -25.647737 1.271900 -8.530539 
-10.035460 -24.235708 91.307632 -114.298654 2.872332 87.299015 14.279263 6.548787 -2.072036 -5.178634 1.860362 20.525600 1.414085 13.336452 -25.397200 nan nan nan -10.928478 -9.985384 -13.551834 2.680425 -11.426700 17.123064 3.369781 -7.417091 -6.900567 nan nan nan -6.757718 0.915984 4.394743 7.333740 -5.581539 10.471729 2.919039 -0.376224 -5.818765 2.016145 3.197631 -1.254285 1.648564 1.071989 6.939177 -12.877923 -10.315363 2.081080 -63.706782 -41.662077 29.152141 155.032714 -68.784478 -123.728463 -2.899958 -15.838044 -7.302780 16.832379 0.765931 -2.201094 35.044378 15.210257 -7.810452 -95.017418 48.308441 -73.463694 2.943334 4.559651 -3.743584 
-10.092619 -24.204033 91.405144 -114.266598 2.895842 87.777190 14.191725 6.595583 -2.528490 -4.995823 2.058014 20.525328 1.198832 13.018906 -25.372451 nan nan nan -10.712603 -9.928980 -13.924620 2.608593 -11.280120 16.827129 3.588869 -7.676062 -6.798026 nan nan nan -6.250073 0.396785 5.716294 6.980434 -5.390227 6.714280 2.855198 -0.398780 -4.720951 1.017462 4.127539 -3.195704 1.511486 2.421061 5.717391 -13.051819 -9.503226 1.689716 -64.182244 -40.486739 29.430111 156.678666 -68.909297 -124.972188 -2.928012 -16.255176 -8.390025 17.031343 0.124515 -2.099114 35.288091 15.378937 -7.701150 -94.979839 49.206277 -73.180093 3.503690 4.379289 -3.239852 
-10.081618 -24.081598 91.292389 -114.230383 2.676926 87.373265 14.252159 7.231413 -2.237343 -4.872128 2.298386 20.978434 0.401634 11.923994 -25.462459 nan nan nan -11.072257 -10.288166 -13.626425 2.606004 -11.368811 17.322756 4.361136 -6.980956 -7.488481 nan nan nan -7.740024 0.875219 5.776455 8.516966 -6.172078 7.546901 2.236294 -0.042037 -5.470009 -0.142865 -19.130437 22.826174 9.493797 -17.925832 12.711545 -12.497315 -7.119013 5.751006 -65.408792 -45.810654 31.143402 153.004853 -69.468016 -122.784537 -4.513941 -17.566001 -7.144579 16.688657 0.085525 -1.249738 35.581563 15.985396 -8.703693 -94.276528 49.147061 -71.527086 5.034207 6.475847 -3.873218 
-10.022754 -24.078873 91.223274 -114.336664 2.574076 86.866354 14.432987 7.394101 -1.646391 -5.176722 2.236440 20.754334 0.712974 12.009824 -25.134486 nan nan nan -11.248041 -10.262178 -13.186497 2.551863 -11.160453 17.556584 3.864092 -6.808163 -7.908567 nan nan nan -8.281510 1.423520 4.816237 8.782709 -6.388578 11.157215 2.257974 0.013429 -6.831431 1.001488 -18.748297 21.886388 9.602673 -19.109751 11.968850 -11.696235 -7.688969 5.918848 -66.049962 -46.882330 31.467267 151.429415 -69.325577 -121.915988 -5.336780 -17.690602 -6.074964 16.361033 0.220700 -1.538964 35.780695 16.290467 -8.956860 -94.329419 48.721584 -71.223160 5.371245 6.505826 -3.559418 
-9.993103 -24.109299 91.193268 -114.418500 2.508069 86.764509 14.435885 7.379115 -1.444180 -5.319268 2.288514 20.475384 0.806734 12.153539 -24.948102 nan nan nan -11.355880 -10.217334 -13.175944 2.557357 -11.039863 17.703695 3.747317 -6.781267 -8.052644 nan nan nan -8.333026 1.604787 4.134585 8.732682 -6.412406 12.876495 2.123568 -0.072646 -7.326762 2.042957 -18.865691 20.914999 9.057350 -19.871105 12.108852 -11.228990 -7.915123 5.657653 -66.302591 -47.247659 31.732304 150.853150 -69.293602 -121.512750 -5.478263 -17.676343 -5.743779 16.189466 0.302477 -2.022598 36.183697 16.385373 -8.580902 -94.328323 48.367086 -70.942284 5.123019 6.399330 -3.704191 
-9.987250 -24.137062 91.208252 -114.458265 2.478423 86.793679 14.404611 7.325235 -1.416639 -5.353411 2.311613 20.321819 0.752444 12.163725 -24.799476 nan nan nan -11.350204 -10.274541 -13.257944 2.560613 -10.888891 17.742998 3.728012 -6.763176 -8.029004 nan nan nan -8.334699 1.531238 4.202163 8.646741 -6.367311 12.591854 1.990795 0.040829 -6.869879 2.077734 -18.774456 20.131657 9.494546 -20.842838 12.606592 -10.772397 -7.721017 5.278770 -67.125081 -47.346830 32.554409 150.452294 -69.364438 -121.220840 -5.485684 -17.687685 -5.700580 16.405805 0.146677 -2.445128 36.209391 16.456556 -8.495078 -94.394955 48.382682 -71.102976 5.478945 6.246585 -2.914874 
-9.989123 -24.177975 91.219933 -114.488791 2.466773 86.784489 14.380816 7.272567 -1.418921 -5.339397 2.332908 20.296956 0.761750 12.142794 -24.740563 nan nan nan -11.353736 -10.281821 -13.315675 2.579371 -10.832580 17.801922 3.638156 -6.696083 -7.823031 nan nan nan -8.275452 1.497987 4.259507 8.598626 -6.336878 12.454028 2.012443 0.001472 -6.724961 2.213374 -18.849062 19.778329 9.289679 -20.895759 12.669364 -10.684376 -7.712932 5.022206 -67.332296 -47.197742 32.714330 150.362119 -69.389422 -120.990321 -5.361729 -17.734735 -5.831902 16.273189 0.194764 -2.542978 36.364759 16.512154 -8.382971 -94.410804 48.295351 -71.043909 5.425773 6.242295 -2.833936 
